<svg width="100" height="100" viewBox="0 0 100 100" fill="none" xmlns="http://www.w3.org/2000/svg">
  <!-- Background Circle -->
  <circle cx="50" cy="50" r="48" fill="#1e3a8a" stroke="#2563eb" stroke-width="2"/>
  
  <!-- Islamic Pattern - Decorative Border -->
  <circle cx="50" cy="50" r="42" fill="none" stroke="#ffffff" stroke-width="1" opacity="0.3"/>
  
  <!-- Crescent Moon (Islamic Symbol) -->
  <path d="M35 30c0-8.837 7.163-16 16-16 6.627 0 12.291 4.028 14.825 9.9-2.534 5.872-8.198 9.9-14.825 9.9-6.627 0-12-5.373-12-12 0-.663.054-1.313.154-1.944C38.729 27.774 35 30 35 30z" fill="#ffffff"/>
  <path d="M35 70c0-8.837 7.163-16 16-16 6.627 0 12.291-4.028 14.825-9.9-2.534-5.872-8.198-9.9-14.825-9.9-6.627 0-12 5.373-12 12 0 .663.054 1.313.154 1.944C38.729 72.226 35 70 35 70z" fill="#ffffff" opacity="0.8"/>
  
  <!-- Book Symbol (Education) -->
  <path d="M25 45h20c2.209 0 4 1.791 4 4v18c0 2.209-1.791 4-4 4H25c-2.209 0-4-1.791-4-4V49c0-2.209 1.791-4 4-4z" fill="#ffffff" stroke="#1e3a8a" stroke-width="1"/>
  <path d="M45 45h20c2.209 0 4 1.791 4 4v18c0 2.209-1.791 4-4 4H45c-2.209 0-4-1.791-4-4V49c0-2.209 1.791-4 4-4z" fill="#ffffff" stroke="#1e3a8a" stroke-width="1"/>
  
  <!-- Book Pages -->
  <path d="M25 47h18v2H25c-1.105 0-2-.895-2-2v-2c0-1.105.895-2 2-2h18v2H25v2z" fill="#2563eb" opacity="0.6"/>
  <path d="M47 47h18v2H47c-1.105 0-2-.895-2-2v-2c0-1.105.895-2 2-2h18v2H47v2z" fill="#2563eb" opacity="0.6"/>
  
  <!-- Graduation Cap Symbol -->
  <path d="M30 35h40l-8-8h-24l-8 8z" fill="#ffffff" stroke="#1e3a8a" stroke-width="1"/>
  <rect x="45" y="40" width="10" height="8" fill="#2563eb" rx="1"/>
  <circle cx="40" cy="44" r="1" fill="#2563eb"/>
  <circle cx="60" cy="44" r="1" fill="#2563eb"/>
  
  <!-- Arabic/Islamic Pattern -->
  <g transform="translate(35, 75)" opacity="0.7">
    <path d="M0 0h30v2H0z" fill="#ffffff"/>
    <circle cx="5" cy="1" r="1" fill="#2563eb"/>
    <circle cx="15" cy="1" r="1" fill="#2563eb"/>
    <circle cx="25" cy="1" r="1" fill="#2563eb"/>
  </g>
  
  <!-- Center Star (Excellence) -->
  <g transform="translate(50, 50)">
    <path d="M0,-15 L4.33,-4.33 L15.59,0 L4.33,4.33 L0,15 L-4.33,4.33 L-15.59,0 L-4.33,-4.33 Z" fill="#ffffff" opacity="0.9"/>
  </g>
</svg>